<svg xmlns="http://www.w3.org/2000/svg" viewBox="0 0 32 32">
  <rect width="32" height="32" rx="6" fill="#0B2545"/>
  <g transform="translate(4, 5)">
    <!-- Simplified winged S mark -->
    <!-- S letterform -->
    <path d="M9 18c0-1.5 1-2.5 3-3l4-1c1.5-.4 2-1 2-2s-.8-1.8-2.5-1.8c-1.8 0-3 .8-3.5 2" 
          stroke="#D4A843" stroke-width="2" fill="none" stroke-linecap="round"/>
    <path d="M15 8c0 1.5-1 2.5-3 3l-4 1c-1.5.4-2 1-2 2s.8 1.8 2.5 1.8c1.8 0 3-.8 3.5-2" 
          stroke="#FFFFFF" stroke-width="2" fill="none" stroke-linecap="round"/>
    <!-- Wing -->
    <path d="M14 9l3-2.5 5-1.5M14 8l3-1 5-1" 
          stroke="#1B6B93" stroke-width="1.5" fill="none" stroke-linecap="round" stroke-linejoin="round"/>
    <path d="M14 6.5l4-1.5 5-1" 
          stroke="#1B6B93" stroke-width="1.5" fill="none" stroke-linecap="round"/>
  </g>
</svg>
